<?xml version="1.0" encoding="UTF-8" standalone="no"?>
<!-- Generator: Adobe Illustrator 19.0.0, SVG Export Plug-In . SVG Version: 6.00 Build 0)  -->

<svg
   version="1.1"
   id="Layer_1"
   x="0px"
   y="0px"
   viewBox="0 0 512.01068 386.79742"
   xml:space="preserve"
   sodipodi:docname="logo.svg"
   width="512.01068"
   height="386.79742"
   inkscape:version="1.1.2 (0a00cf5339, 2022-02-04)"
   inkscape:export-filename="/home/gnunux/git/risotto/rougail/logo.png"
   inkscape:export-xdpi="48"
   inkscape:export-ydpi="48"
   xmlns:inkscape="http://www.inkscape.org/namespaces/inkscape"
   xmlns:sodipodi="http://sodipodi.sourceforge.net/DTD/sodipodi-0.dtd"
   xmlns="http://www.w3.org/2000/svg"
   xmlns:svg="http://www.w3.org/2000/svg"><defs
   id="defs91" /><sodipodi:namedview
   id="namedview89"
   pagecolor="#ffffff"
   bordercolor="#666666"
   borderopacity="1.0"
   inkscape:pageshadow="2"
   inkscape:pageopacity="0.0"
   inkscape:pagecheckerboard="0"
   showgrid="false"
   inkscape:zoom="1.2346747"
   inkscape:cx="267.68184"
   inkscape:cy="97.191592"
   inkscape:window-width="1482"
   inkscape:window-height="1063"
   inkscape:window-x="26"
   inkscape:window-y="23"
   inkscape:window-maximized="0"
   inkscape:current-layer="Layer_1" />



<path
   style="fill:#bdde8a;fill-opacity:1"
   d="M 498.63092,324.61 C 526.7968,228.9586 500.31957,125.31363 418.37657,58.088623 309.06886,-31.586053 147.76206,-15.670345 58.087384,93.63734 3.700323,159.93169 -11.241977,247.31269 9.3301502,324.28047 Z"
   id="path1669"
   sodipodi:nodetypes="csscc" /><path
   style="fill:#dd463a;fill-opacity:1;stroke-width:1.00137"
   d="m 276.21598,82.048498 c 5.376,-6.573951 14.258,-9.765666 22.973,-7.433297 8.693,2.343398 14.781,9.543057 16.184,17.901882 6.879,-4.944502 16.284,-5.736665 24.097,-1.205291 7.802,4.509312 11.821,13.046628 11.008,21.484658 7.925,-3.00219 17.219,-1.31659 23.597,5.07787 6.367,6.39546 8.047,15.68082 5.087,23.61649 8.426,-0.83729 16.963,3.20274 21.471,11.03814 4.508,7.82335 3.74,17.22102 -1.169,24.12989 8.359,1.38377 15.549,7.48945 17.887,16.22831 2.337,8.72782 -0.835,17.61209 -7.357,23.00281 7.713,3.50457 13.089,11.27277 13.089,20.32449 l -167.113,0.15643 c -0.72927,-75.08 0.46267,-102.85471 0,-167.414134 9.005,0 16.74,5.368664 20.246,13.091752 z"
   id="path8-7"
   sodipodi:nodetypes="ccccccccccccccc" /><path
   style="fill:#dfdfdf;fill-opacity:1;stroke-width:1.00138"
   d="m 235.72398,82.048497 c -5.376,-6.57395 -14.258,-9.765666 -22.973,-7.433296 -8.693,2.343397 -14.781,9.543055 -16.18401,17.901883 -6.879,-4.944503 -16.284,-5.736667 -24.09699,-1.205293 -7.80201,4.509312 -11.82101,13.046629 -11.008,21.484669 -7.925,-3.0022 -17.219,-1.3166 -23.597,5.07786 -6.367,6.39546 -8.047,15.68082 -5.087,23.61649 -8.426,-0.83729 -16.963,3.20276 -21.471,11.03814 -4.508,7.82336 -3.74,17.22102 1.169,24.12988 -8.359,1.38377 -15.548999,7.48946 -17.886999,16.22832 -2.337,8.7278 0.835,17.61209 7.356999,23.0028 -7.712999,3.50458 -13.088999,11.27279 -13.088999,20.3245 l 167.112999,0.15643 c 0.72927,-75.08001 -0.46267,-102.85471 0,-167.414134 -9.005,0 -16.74001,5.368663 -20.246,13.091751 z"
   id="path8-7-9"
   sodipodi:nodetypes="ccccccccccccccc" />


<path
   style="fill:#ad622f;fill-opacity:1;stroke-width:1.38989"
   d="m 399.73825,197.99691 c 0,13.06359 -10.19149,23.65616 -22.7635,23.65616 v -47.31091 c 12.57201,0 22.7635,10.59115 22.7635,23.65475 z"
   id="path18" /><path
   style="fill:#80451d;fill-opacity:1;stroke-width:1.38989"
   d="m 354.21124,197.99691 c 0,13.06359 10.1915,23.65616 22.76351,23.65616 v -47.31091 c -12.57201,0 -22.76351,10.59115 -22.76351,23.65475 z"
   id="path18-5" /><path
   style="fill:#ad622f;fill-opacity:1;stroke-width:1.38989"
   d="m 350.44386,149.27944 c 0,13.06359 -10.19149,23.65616 -22.7635,23.65616 v -47.31091 c 12.57201,0 22.7635,10.59115 22.7635,23.65475 z"
   id="path18-6" /><path
   style="fill:#80451d;fill-opacity:1;stroke-width:1.38989"
   d="m 304.91685,149.27944 c 0,13.06359 10.1915,23.65616 22.76351,23.65616 v -47.31091 c -12.57201,0 -22.76351,10.59115 -22.76351,23.65475 z"
   id="path18-5-7" /><path
   style="fill:#ad622f;fill-opacity:1;stroke-width:1.38989"
   d="m 318.98719,235.00665 c 0,13.06359 -10.19149,23.65616 -22.7635,23.65616 V 211.3519 c 12.57201,0 22.7635,10.59115 22.7635,23.65475 z"
   id="path18-3" /><path
   style="fill:#80451d;fill-opacity:1;stroke-width:1.38989"
   d="m 273.46018,235.00665 c 0,13.06359 10.1915,23.65616 22.76351,23.65616 V 211.3519 c -12.57201,0 -22.76351,10.59115 -22.76351,23.65475 z"
   id="path18-5-5" />







<path
   style="fill:#115d69;fill-opacity:1;stroke-width:0.735488"
   d="m 255.96998,236.37088 v 88.23884 l 151.2699,2.8e-4 c 28.84387,-4.92008 21.0535,-82.47208 35.12125,-88.47361 z"
   id="path34-6"
   sodipodi:nodetypes="ccccc" /><path
   style="fill:#0f6d7c;fill-opacity:1;stroke-width:0.735488"
   d="m 255.96998,236.37088 v 88.23884 L 104.70008,324.61 C 75.856206,319.68992 83.646576,242.13792 69.578826,236.13639 Z"
   id="path34-6-56"
   sodipodi:nodetypes="ccccc" />









<g
   id="g58"
   transform="translate(1.510746,-1.5281298)">
</g>
<g
   id="g60"
   transform="translate(1.510746,-1.5281298)">
</g>
<g
   id="g62"
   transform="translate(1.510746,-1.5281298)">
</g>
<g
   id="g64"
   transform="translate(1.510746,-1.5281298)">
</g>
<g
   id="g66"
   transform="translate(1.510746,-1.5281298)">
</g>
<g
   id="g68"
   transform="translate(1.510746,-1.5281298)">
</g>
<g
   id="g70"
   transform="translate(1.510746,-1.5281298)">
</g>
<g
   id="g72"
   transform="translate(1.510746,-1.5281298)">
</g>
<g
   id="g74"
   transform="translate(1.510746,-1.5281298)">
</g>
<g
   id="g76"
   transform="translate(1.510746,-1.5281298)">
</g>
<g
   id="g78"
   transform="translate(1.510746,-1.5281298)">
</g>
<g
   id="g80"
   transform="translate(1.510746,-1.5281298)">
</g>
<g
   id="g82"
   transform="translate(1.510746,-1.5281298)">
</g>
<g
   id="g84"
   transform="translate(1.510746,-1.5281298)">
</g>
<g
   id="g86"
   transform="translate(1.510746,-1.5281298)">
</g>
</svg>
