<?xml version="1.0" encoding="UTF-8" standalone="no"?>
<!-- Uploaded to: SVG Repo, www.svgrepo.com, Generator: SVG Repo Mixer Tools -->

<svg
   fill="#000000"
   height="800"
   width="800"
   version="1.1"
   id="Layer_1"
   viewBox="0 0 481.882 481.882"
   xml:space="preserve"
   sodipodi:docname="atom.svg"
   inkscape:version="1.3 (0e150ed, 2023-07-21)"
   inkscape:export-filename="atom.png"
   inkscape:export-xdpi="96"
   inkscape:export-ydpi="96"
   xmlns:inkscape="http://www.inkscape.org/namespaces/inkscape"
   xmlns:sodipodi="http://sodipodi.sourceforge.net/DTD/sodipodi-0.dtd"
   xmlns="http://www.w3.org/2000/svg"
   xmlns:svg="http://www.w3.org/2000/svg"><defs
   id="defs4" /><sodipodi:namedview
   id="namedview4"
   pagecolor="#ffffff"
   bordercolor="#000000"
   borderopacity="0.25"
   inkscape:showpageshadow="2"
   inkscape:pageopacity="0.0"
   inkscape:pagecheckerboard="0"
   inkscape:deskcolor="#d1d1d1"
   inkscape:zoom="0.345"
   inkscape:cx="420.28986"
   inkscape:cy="631.88406"
   inkscape:window-width="1392"
   inkscape:window-height="945"
   inkscape:window-x="207"
   inkscape:window-y="25"
   inkscape:window-maximized="0"
   inkscape:current-layer="Layer_1" />&#10;<g
   id="g2"
   transform="matrix(1,0,0,0.87292509,-0.043353,3.6141151)">&#10;	<g
   id="g1">&#10;		<path
   d="M 403.7,240.935 C 446.972,194.865 466.327,149.44 449.602,120.47 436.492,97.764 401.488,88.231 353.47,94.279 343.453,95.55 333,97.599 322.346,100.084 304.088,39.517 274.412,0 240.945,0 c -33.464,0 -63.139,39.506 -81.4,100.059 -21.255,-5.015 -41.291,-7.728 -59.141,-7.728 -33.941,0 -57.496,9.732 -68.125,28.14 -16.725,28.97 2.631,74.397 45.905,120.468 -43.275,46.072 -62.63,91.501 -45.905,120.474 10.687,18.515 34.389,28.159 68.077,28.159 9.893,0 20.65,-0.831 32.187,-2.515 8.735,-1.275 17.794,-3.153 26.977,-5.31 18.26,60.597 47.944,100.137 81.423,100.137 33.467,0 63.143,-39.517 81.402,-100.085 10.655,2.485 21.109,4.536 31.128,5.807 9.481,1.202 18.452,1.79 26.853,1.79 34.11,0 58.754,-9.75 69.275,-27.982 16.726,-28.978 -2.628,-74.408 -45.901,-120.479 z M 355.364,109.221 c 8.908,-1.129 17.309,-1.677 25.107,-1.677 28.147,0 48.426,7.184 56.088,20.456 12.096,20.951 -3.841,59.984 -43.329,102.222 -15.77,-15.487 -34.148,-30.899 -54.662,-45.654 -2.516,-25.067 -6.655,-48.623 -12.158,-69.971 9.911,-2.288 19.64,-4.195 28.954,-5.376 z m -15.145,95.203 c 15.989,12.103 30.205,24.383 42.547,36.512 -12.341,12.128 -26.558,24.41 -42.547,36.513 0.758,-11.909 1.152,-24.099 1.152,-36.508 0,-12.411 -0.394,-24.605 -1.152,-36.517 z m -18.021,-31.213 c -9.934,-6.609 -20.294,-13.045 -31.039,-19.247 -10.671,-6.16 -21.458,-11.875 -32.261,-17.212 18.06,-7.615 35.816,-13.735 52.995,-18.48 4.313,16.708 7.824,35.106 10.305,54.939 z M 240.945,15.059 c 24.203,0 50.052,33.357 66.886,88.728 -21.614,5.978 -44.099,14.215 -66.835,24.475 -22.763,-10.239 -45.356,-18.461 -66.944,-24.472 16.836,-55.373 42.687,-88.731 66.893,-88.731 z m -70.947,103.19 c 17.104,4.76 34.9,10.967 52.962,18.563 -10.766,5.339 -21.536,10.973 -32.236,17.152 -10.745,6.203 -21.105,12.64 -31.039,19.25 2.481,-19.844 5.996,-38.251 10.313,-54.965 z m -39.627,253.906 c -43.677,6.379 -74.673,-0.291 -85.048,-18.272 -12.097,-20.953 3.841,-59.991 43.331,-102.231 15.77,15.486 34.147,30.898 54.659,45.655 2.512,25.038 6.645,48.569 12.138,69.898 -8.585,2.016 -17.025,3.774 -25.08,4.95 z m 11.292,-94.706 c -15.989,-12.104 -30.203,-24.382 -42.545,-36.511 12.341,-12.128 26.556,-24.408 42.546,-36.511 -0.758,11.91 -1.153,24.104 -1.153,36.514 0,12.409 0.394,24.6 1.152,36.508 z m 1.651,-92.879 c -20.513,14.755 -38.891,30.167 -54.66,45.655 C 49.165,187.985 33.227,148.951 45.324,128 c 9.831,-17.033 35.378,-20.61 55.081,-20.61 16.598,0 35.25,2.499 55.089,7.135 -5.514,21.368 -9.661,44.949 -12.18,70.045 z m 16.37,124.094 c 9.934,6.61 20.294,13.047 31.04,19.251 10.659,6.155 21.386,11.768 32.11,17.09 -17.951,7.518 -35.739,13.73 -52.868,18.512 -4.303,-16.684 -7.806,-35.054 -10.282,-54.853 z m 81.261,158.159 c -24.209,0 -50.062,-33.366 -66.899,-88.751 21.675,-6.012 44.192,-14.296 66.852,-24.498 22.77,10.281 45.289,18.534 66.933,24.52 -16.834,55.373 -42.682,88.729 -66.886,88.729 z m 70.948,-103.212 c -17.199,-4.751 -34.976,-10.883 -53.057,-18.51 10.818,-5.351 21.623,-11.009 32.322,-17.186 10.746,-6.204 21.107,-12.641 31.04,-19.251 -2.479,19.837 -5.992,38.236 -10.305,54.947 z m 12.389,-74.555 c -12.62,8.81 -26.183,17.461 -40.654,25.816 -14.045,8.11 -28.422,15.49 -42.836,22.175 -14.17,-6.629 -28.406,-14.014 -42.539,-22.175 -14.471,-8.355 -28.034,-17.006 -40.654,-25.816 -1.32,-15.334 -2.03,-31.405 -2.03,-48.114 0,-16.711 0.71,-32.785 2.031,-48.12 12.619,-8.809 26.182,-17.459 40.653,-25.813 14.161,-8.178 28.427,-15.574 42.626,-22.213 14.279,6.65 28.604,14.048 42.749,22.213 14.471,8.353 28.033,17.002 40.653,25.811 1.32,15.337 2.031,31.41 2.031,48.123 0,16.707 -0.71,32.779 -2.03,48.113 z m 112.277,64.826 c -9.791,16.96 -40.151,23.99 -81.191,18.78 -9.315,-1.181 -19.044,-3.089 -28.957,-5.378 5.504,-21.35 9.644,-44.909 12.159,-69.978 20.514,-14.757 38.892,-30.169 54.661,-45.657 39.488,42.24 55.425,81.279 43.328,102.233 z"
   id="path1" />&#10;	</g>&#10;</g>&#10;<g
   id="g4"
   transform="translate(-0.043354,-26.50351)">&#10;	<g
   id="g3">&#10;		<path
   d="m 240.945,187.666 c -29.378,0 -53.279,23.901 -53.279,53.275 0,29.375 23.901,53.276 53.279,53.276 29.375,0 53.272,-23.901 53.272,-53.276 0,-29.374 -23.897,-53.275 -53.272,-53.275 z"
   id="path2" />&#10;	</g>&#10;</g>&#10;<text
   xml:space="preserve"
   style="font-style:normal;font-variant:normal;font-weight:bold;font-stretch:normal;font-size:57.8258px;line-height:1.25;font-family:Helvetica;-inkscape-font-specification:'Helvetica Bold';stroke-width:0.602352"
   x="21.421162"
   y="478.92645"
   id="text4"><tspan
     sodipodi:role="line"
     id="tspan4"
     style="font-style:normal;font-variant:normal;font-weight:bold;font-stretch:normal;font-size:57.8258px;font-family:Helvetica;-inkscape-font-specification:'Helvetica Bold';stroke-width:0.602352"
     x="21.421162"
     y="478.92645">AtomPolarTable</tspan></text></svg>
