<?xml version="1.0" encoding="utf-8"?>
<svg xmlns="http://www.w3.org/2000/svg" enable-background="new 0 0 896.3 1063.3" viewBox="0 0 896.3 1063.3">
  <path d="m113.2 1.4c-15.6-.4-28.7 15.3-29 35.1v.8 291.3c-15.4 34.6-23.4 71.5-23.5 108.7.1 42.9 10.7 85.2 31 124-12.4 3.8-24.9 8.8-36.6 14.2-29.3 13.4-53.1 28.6-53.1 28.6l6.3 9.9s23.3-14.8 51.7-27.8c12-5.5 25-10.6 37.2-14.2 4.4 7.6 9.2 15.1 14.3 22.4-14.9 3.8-30.5 9.9-44.8 16.5-29.2 13.4-53.1 28.6-53.1 28.6l6.3 9.9s23.3-14.8 51.7-27.8c14.2-6.5 29.6-12.6 43.8-16.1 1.4-.3 2.6-.5 4-.8 5.9 7.6 12.2 15 18.8 22.1-4.5.6-9.1 1.5-13.9 2.6-15.2 3.8-31.2 10.1-45.9 16.8-29.2 13.4-53.1 28.6-53.1 28.6l6.3 9.9s23.3-14.8 51.7-27.8c14.2-6.5 29.6-12.6 43.8-16.1 7.9-2 15.3-3 21.9-3 5.9 5.6 11.9 10.9 18.3 16.1-16 31.7-24.3 66.4-24.4 101.5 0 77.8 40.2 150.5 107.4 194.5-20.7 18.6-29.3 42.5-23.2 64.1 10.6 36.9 60.4 56.6 111.2 43.9 19.9-5 37.9-14.5 51.3-27.2 13.4 12.7 31.4 22.2 51.3 27.2 50.8 12.7 100.6-6.9 111.2-43.9 6.2-21.7-2.5-45.7-23.4-64.3 25.2-16.4 47.1-37.1 64.4-61.1 20.2 9.5 39.9 25.4 59.9 41.4 49.6 39.7 115.4 50.6 165.8 19.8 50.4-30.7 76.7-93.3 76-170.5.1-26-20.8-47.2-46.7-47.4-.5 0-.9 0-1.4 0-25.9.6-46.5 22.2-45.9 48.2.5 56-17.5 81-30.8 89.2-13.3 8.1-30.8 9.1-58.4-13-18.3-14.7-44.4-37.7-80.2-53.9 3.3-15.4 5-31.2 5-46.9-.1-35.1-8.4-69.8-24.3-101.5 6.2-5.2 12.2-10.5 18-16.1 6.6.1 14.1 1.1 22.1 3 14.1 3.5 29.6 9.6 43.8 16.1 28.4 13 51.7 27.8 51.7 27.8l6.3-9.9s-23.9-15.2-53.1-28.6c-14.6-6.7-30.6-13-45.8-16.8-4.6-1.1-9.1-2-13.5-2.6 6.6-7.1 12.9-14.5 18.8-22.1 1.2.3 2.4.4 3.7.7 14.1 3.5 29.6 9.6 43.8 16.1 28.4 13 51.7 27.8 51.7 27.8l6.3-9.9s-23.9-15.2-53.1-28.6c-14.3-6.6-30-12.7-45-16.5 5.2-7.3 9.9-14.7 14.4-22.4 12.4 3.6 25.3 8.7 37.5 14.3 28.4 13 51.7 27.8 51.7 27.8l6.3-9.9s-23.9-15.2-53.1-28.6c-11.7-5.4-24.3-10.4-36.6-14.2 20.3-38.8 30.9-81.1 31-124 0-37.3-8-74.3-23.5-109v-291c0-19.8-12.7-35.9-28.4-35.9-.2 0-.4 0-.6 0-4.8.1-9.4 1.8-13.5 4.8l-196.2 142.8c-22.1-4.2-44.6-6.3-67.2-6.3-22.5.1-44.9 2.3-66.9 6.5l-195.9-143.1c-4.1-3-8.8-4.6-13.6-4.8m6.2 70.7 66.8 133.9c-25.7 18.1-48.1 39.5-66.8 63.5zm540.5 0v197.8c-18.6-24.1-41.2-45.6-66.9-63.7zm-439.3 330c11.6-.2 23.5 1.1 35.3 4 46.9 11.7 82.5 46.9 86.8 89.3.3 2.6-.5 5.2-2 7.3-26.3 34.4-75.5 48.4-122.5 36.8-46.9-11.7-82.5-46.9-86.8-89.3-.3-2.6.5-5.2 2-7.3 19.6-25.8 52.2-40.1 87.2-40.8zm338.2 0c34.9.7 67.5 15 87.3 40.8 1.6 2.1 2.3 4.7 2 7.3-4.3 42.3-39.9 77.6-86.8 89.3-47 11.6-96.2-2.4-122.5-36.8-1.6-2.1-2.3-4.7-2-7.3 4.3-42.3 39.9-77.6 86.8-89.3 11.6-2.9 23.5-4.2 35.2-4zm-292.5 23.6c-16.2 0-29.4 15.8-29.4 35.3s13.2 35.3 29.4 35.3 29.4-15.8 29.4-35.3-13.2-35.3-29.4-35.3zm246.7 0c-16.2 0-29.4 15.8-29.4 35.3s13.2 35.3 29.4 35.3 29.3-15.8 29.4-35.3c0-19.5-13.1-35.3-29.4-35.3m-123.3 141.3c19.5 0 35.2 10.5 35.2 23.6 0 13-15.8 23.6-35.2 23.6-19.5 0-35.2-10.5-35.2-23.6-.1-13 15.7-23.6 35.2-23.6" stroke-miterlimit="10" fill="#000000" stroke="none" stroke-width="2" vector-effect="non-scaling-stroke"/>
</svg>
