<?xml version="1.0" standalone="no"?>
<svg xmlns="http://www.w3.org/2000/svg" height="1145pt" preserveAspectRatio="xMidYMid meet" viewBox="0 0 1280 1145" width="1280pt">
  <path d="m6054 11436c-63-28-99-103-92-192 4-45 13-67 55-127 108-154 143-257 150-438 9-213-41-376-163-536-169-221-248-434-260-708-10-215 31-414 122-600 54-109 133-218 177-245 67-41 149-14 195 65 19 33 22 52 20 106-3 62-7 71-64 155-109 162-150 306-141 503 3 64 12 143 21 176 24 90 87 209 163 310 112 148 180 297 220 485 25 118 25 382 0 498-38 173-108 333-197 455-75 101-130 126-206 93zm-2134-864c-37-37-60-91-60-143 0-42 20-90 67-156 103-145 147-288 146-473 0-199-45-332-167-495-184-245-258-461-259-755 0-216 36-376 125-555 43-86 111-186 150-223 83-76 207-27 237 94 18 71 5 116-65 219-104 156-138 271-138 460 0 208 42 329 176 512 173 235 248 459 248 743 0 271-78 523-221 713-59 78-89 97-155 97-40 0-51-5-84-38zm4229 22c-42-27-72-80-77-139-6-73 0-93 55-172 113-165 148-280 148-483-1-217-39-329-174-509-158-210-236-424-248-682-11-216 30-418 122-604 73-148 142-238 199-260 97-37 196 48 196 168 0 58-17 102-65 164-163 213-193 564-70 818 18 38 66 113 105 165 201 266 285 600 236 930-35 226-149 478-266 584-34 31-47 36-88 36-26 0-59-8-73-16zm-6714-3716c3-29 7-143 10-253 23-920 257-1909 650-2754 398-856 1002-1626 1658-2113l79-58h-1916-1916v-23c0-35 28-133 50-176 83-163 304-340 615-491 556-272 1312-471 2458-646l37-6v-179-179h3090 3090v170 169l33 6c17 3 140 21 271 41 917 136 1720 345 2249 585 339 154 594 347 685 517 27 51 61 161 62 200 0 9-412 12-2026 12h-2027l96 72c243 186 527 455 742 703 112 130 290 356 354 452l34 50 216-4c235-6 413 9 603 48 482 99 927 325 1278 647 395 362 663 802 794 1303 67 254 87 432 90 776l1 193h-939-938l6 43c27 194 56 603 56 804v143h-4774-4775zm11025-1332c0-89-26-278-56-415-150-668-608-1257-1221-1569-326-166-634-246-996-259l-167-6 65 114c337 585 614 1335 750 2029 14 74 29 143 31 153 5 16 52 17 800 17h794z" transform="matrix(.1 0 0 -.1 0 1145)" fill="#000000" stroke="none" stroke-width="2" vector-effect="non-scaling-stroke"/>
</svg>
