<?xml version="1.0" standalone="no"?>
<svg xmlns="http://www.w3.org/2000/svg" height="1920pt" preserveAspectRatio="xMidYMid meet" viewBox="0 0 1767 1920" width="1767pt">
  <path d="m12915 19175c-888-156-1605-643-1939-1316-174-351-238-731-190-1139 20-175 45-289 106-485 59-191 71-294 44-391-96-334-645-524-1731-599-380-26-868-35-1905-35-1312 0-1774-13-2255-60-716-72-1125-204-1346-436-115-121-149-212-156-410-12-321 49-622 177-882 125-255 260-417 590-710 214-190 359-334 428-427 111-148 176-324 189-507l6-88h-1044-1044l-395-452c-1066-1222-1582-1814-1772-2031-120-137-208-246-208-257 0-19-38-706-135-2455-25-445-52-931-60-1080-8-148-37-675-65-1170-27-495-79-1431-115-2080s-69-1258-75-1353c-5-95-10-177-10-182 0-10 42-23 370-114 129-35 415-115 635-176 405-113 725-202 1048-291l178-49h2210 2210l257 49c141 27 408 79 592 115 386 75 936 182 1190 231 850 163 1153 223 1155 228 1 1-9 308-21 682-13 374-39 1193-59 1820-19 627-49 1552-65 2055s-43 1352-60 1885c-16 534-37 1181-46 1439l-15 468-702 826c-386 454-781 918-877 1031-96 114-300 354-453 534l-279 327h-1042-1043l-7 88c-20 249-100 465-245 659-90 121-176 208-421 428-336 300-457 441-561 648-95 189-142 372-160 631-17 240 4 320 111 419 174 162 558 273 1145 331 447 45 806 56 1885 56 1655 1 2302 22 2848 96 826 111 1270 336 1386 704 52 162 44 285-34 545-79 266-95 346-110 555-38 531 157 1025 556 1409 179 173 370 305 609 421 301 146 576 224 935 266 176 20 516 15 680-11 235-36 522-123 624-187 796-510 1336-3130 1496-7263 5-137 12-369 15-515s8-329 11-407l5-143h-535c-495 0-539-1-595-19-125-39-218-120-274-239l-32-67v-1480-1480l33-68c58-119 169-208 293-236 28-7 470-11 1241-11 1144 0 1199 1 1257 19 83 26 141 62 194 121 61 68 95 143 108 237 6 51 9 561 7 1478l-3 1400-23 60c-42 114-138 211-252 258-54 22-61 22-611 25l-556 3-7 342c-34 1691-180 3594-372 4836-263 1710-615 2756-1081 3217-152 150-334 242-623 315-243 60-255 62-680 65-382 3-400 2-535-21z" transform="matrix(.1 0 0 -.1 0 1920)" fill="#000000" stroke="none" stroke-width="2" vector-effect="non-scaling-stroke"/>
</svg>
