<?xml version="1.0" encoding="utf-8"?>
<!-- Generator: Adobe Illustrator 19.1.1, SVG Export Plug-In . SVG Version: 6.00 Build 0)  -->
<svg version="1.2" baseProfile="tiny" id="Слой_1"
	 xmlns="http://www.w3.org/2000/svg" xmlns:xlink="http://www.w3.org/1999/xlink" x="0px" y="0px" viewBox="0 0 33.2 47.6"
	 xml:space="preserve">
<circle fill="#D24A43" stroke="#000000" stroke-width="0.25" stroke-miterlimit="10" cx="16.8" cy="14.6" r="4.7"/>
<circle fill="#D24A43" stroke="#000000" stroke-width="0.25" stroke-miterlimit="10" cx="10.9" cy="5.9" r="5.7"/>
<circle stroke="#000000" stroke-width="0.25" stroke-miterlimit="10" cx="19.4" cy="14.4" r="1.8"/>
<circle stroke="#000000" stroke-width="0.25" stroke-miterlimit="10" cx="14.1" cy="4.9" r="2"/>
<circle fill="#FFFFFF" stroke="#000000" stroke-width="0.25" stroke-miterlimit="10" cx="13.3" cy="4.1" r="0.8"/>
<circle fill="#FFFFFF" stroke="#000000" stroke-width="0.25" stroke-miterlimit="10" cx="18.8" cy="13.9" r="0.6"/>
<g>
	<path stroke="#000000" stroke-width="0.25" stroke-miterlimit="10" d="M32.3,47.2h-2.8c-0.1,0-0.2,0-0.2-0.1
		c-1.2-0.6-2.1-1.4-2.7-2.5L17.1,29L6.7,46.3c-0.4,0.6-0.8,0.9-1.4,1s-1-0.1-1.5-0.4c-0.4-0.3-0.7-0.7-0.9-1.2
		c-0.2-0.5,0-1.1,0.4-1.6l12.7-16.7L5.9,10.7C5.2,9.5,4.5,8.4,3.7,7.6C2.9,6.7,2,6.2,0.9,6.2C0.5,6.2,0.3,6,0.3,5.6
		c0-0.4,0.2-0.7,0.7-0.7c1.6,0,3.2,0.3,4.7,0.8c1.6,0.5,2.8,1.5,3.7,2.9l20.6,34c0.4,0.8,0.9,1.5,1.3,2.1c0.5,0.7,0.9,1.1,1.3,1.4
		c0.2,0.1,0.3,0.3,0.3,0.5C32.9,47,32.7,47.2,32.3,47.2z"/>
</g>
</svg>
